# xmcd CD database file
#
# Track frame offsets:
#	150
#	15547
#	27872
#	40642
#	57992
#	72095
#	100045
#	116510
#	131817
#	150890
#	163707
#	177677
#	195030
#	210782
#	228862
#	243780
#	257345
#	277087
#	292130
#	314582
#
# Disc length: 4473 seconds
#
# Revision: 0
# Processed by: cddbd v1.5.2PL0 Copyright (c) Steve Scherf et al.
# Submitted via: CDex 1.50beta8
#
DISCID=05117714
DTITLE=Little Milton - Best Blues Masters
DYEAR=1900
DGENRE=Blues
TTITLE0=If That Ain't A Reason (For Your Woman To Leave You)
TTITLE1=Mr.Mailman (Idon't Want No Letter)
TTITLE2=I'm Living Off The Love You Give
TTITLE3=Tha's What Love Will Make You Do
TTITLE4=Before The Honeymoon
TTITLE5=Walking The Back Streets And Crying
TTITLE6=I'm Gonna Cry A River
TTITLE7=What It Is
TTITLE8=Rainy Day
TTITLE9=Lovin' Stick
TTITLE10=Who Can Handle Me Is You
TTITLE11=Tin Pan Alley
TTITLE12=Sweet Woman Of Mine
TTITLE13=Behind Closed Doors
TTITLE14=Bet You I Win
TTITLE15=Let Me Back In
TTITLE16=Let Your Loss Be Your Lesson
TTITLE17=If You Talk In Your Sleep
TTITLE18=How Could You Do It To Me
TTITLE19=Packed Up And Took My Hand
EXTD=
EXTT0=
EXTT1=
EXTT2=
EXTT3=
EXTT4=
EXTT5=
EXTT6=
EXTT7=
EXTT8=
EXTT9=
EXTT10=
EXTT11=
EXTT12=
EXTT13=
EXTT14=
EXTT15=
EXTT16=
EXTT17=
EXTT18=
EXTT19=
PLAYORDER=
